<svg width="98" height="16" viewBox="0 0 98 16" fill="none" xmlns="http://www.w3.org/2000/svg">
<g id="Frame" clip-path="url(#clip0_6070_474)">
<g id="Group">
<g id="Group_2">
<path id="Vector" d="M12.2109 12.7937L8.53195 15.9693C3.14665 15.7555 0 14.4578 0 10.4273H4.1016C4.1016 12.0762 5.47923 12.8243 10.6767 12.8243C11.2403 12.8243 11.7569 12.8243 12.2109 12.7937Z" fill="#092326"/>
<path id="Vector_2" d="M19.7097 5.31288H15.6081C15.6081 3.60296 13.8548 3.17548 9.58099 3.17548C9.20527 3.17548 8.8452 3.17548 8.5321 3.19075L12.1484 0.0609741C16.9075 0.381585 19.7097 1.93884 19.7097 5.31288Z" fill="#092326"/>
<path id="Vector_3" d="M15.9054 12.0303C16.1715 11.8013 16.2967 11.496 16.2967 11.1448C16.2967 9.84713 15.3887 9.63339 10.207 9.38912C3.25616 9.06851 0.485229 8.01507 0.485229 4.51889C0.485229 1.22118 3.80408 0.0914115 9.40855 0.0150757L5.1191 3.69446C4.72772 3.98454 4.58683 4.25935 4.58683 4.7021C4.58683 5.9082 5.54178 6.12194 10.1913 6.39675C16.4846 6.73263 20.3827 7.06851 20.3827 11.0074C20.3827 14.9616 16.7351 15.9082 11.3028 15.9998" fill="#092326"/>
<path id="Vector_4" d="M25.9875 3.57234V6.91585H37.3999V10.2899H25.9875V15.7708H21.8859V0.213562H38.7619V3.57234H25.9875Z" fill="#092326"/>
<g id="Group_3">
<path id="Vector_5" d="M46.5263 10.4432L40.4052 15.7867H34.7538L43.7397 8.00043L34.7538 0.214172H40.4052L46.5263 5.55768L49.2033 8.00043" fill="#092326"/>
<path id="Vector_6" d="M50.7219 6.74791L58.2832 0.213562H52.6318L47.9353 4.30517" fill="#092326"/>
<path id="Vector_7" d="M47.9194 11.6638L52.6316 15.786H58.283L50.6903 9.22107" fill="#092326"/>
</g>
<g id="Group_4">
<path id="Vector_8" d="M86.2273 10.4432L80.1219 15.7867H74.4705L83.4564 8.00043L74.4705 0.214172H80.1219L86.2273 5.55768L88.92 8.00043" fill="#092326"/>
<path id="Vector_9" d="M90.4073 6.77845L98 0.213562H92.3485L87.6207 4.3357" fill="#092326"/>
<path id="Vector_10" d="M87.652 11.6944L92.3485 15.786H97.9999L90.4386 9.25165" fill="#092326"/>
</g>
<path id="Vector_11" d="M76.6623 7.99982C76.6623 13.2975 73.0303 15.7861 68.913 15.7861H57.3284V0.213562H68.913C73.046 0.213562 76.6623 2.70211 76.6623 7.99982ZM72.5607 7.99982C72.5607 4.21356 70.4629 3.57234 67.3632 3.57234H61.43V12.4273H67.3632C70.4629 12.4273 72.5607 11.7861 72.5607 7.99982Z" fill="#092326"/>
</g>
</g>
</g>
<defs>
<clipPath id="clip0_6070_474">
<rect width="98" height="16" fill="white"/>
</clipPath>
</defs>
</svg>
